HIERARCHY
ROOT hip
{
	OFFSET 0.000000 0.000000 0.000000 
	CHANNELS 6 Xposition Yposition Zposition Xrotation Zrotation Yrotation
	JOINT abdomen
	{
		OFFSET 0.000000 3.402643 0.000000 
		CHANNELS 3 Xrotation Zrotation Yrotation
		JOINT chest
		{
			OFFSET 0.000000 8.438565 -0.680529 
			CHANNELS 3 Xrotation Zrotation Yrotation
			JOINT neck
			{
				OFFSET 0.000000 10.207942 -0.272212 
				CHANNELS 3 Xrotation Zrotation Yrotation
				JOINT head
				{
					OFFSET 0.000000 3.130431 0.000000 
					CHANNELS 3 Xrotation Zrotation Yrotation
					End Site
					{
						OFFSET 0.000000 3.130435 0.000000 
					}
				}
			}
			JOINT lCollar
			{
				OFFSET 3.470700 6.669187 -0.816635 
				CHANNELS 3 Zrotation Yrotation Xrotation
				JOINT lShldr
				{
					OFFSET 3.198488 0.000000 0.000000 
					CHANNELS 3 Zrotation Yrotation Xrotation
					JOINT lForeArm
					{
						OFFSET 10.139888 0.000000 0.000000 
						CHANNELS 3 Yrotation Zrotation Xrotation
						JOINT lHand
						{
							OFFSET 8.370511 0.000000 0.000000 
							CHANNELS 3 Zrotation Yrotation Xrotation
							End Site
							{
								OFFSET 4.083176 0.000000 0.000000 
							}
						}
					}
				}
			}
			JOINT rCollar
			{
				OFFSET -3.470700 6.669187 -0.816635 
				CHANNELS 3 Zrotation Yrotation Xrotation
				JOINT rShldr
				{
					OFFSET -3.198488 0.000000 0.000000 
					CHANNELS 3 Zrotation Yrotation Xrotation
					JOINT rForeArm
					{
						OFFSET -10.139888 0.000000 0.000000 
						CHANNELS 3 Yrotation Zrotation Xrotation
						JOINT rHand
						{
							OFFSET -8.370511 0.000000 0.000000 
							CHANNELS 3 Zrotation Yrotation Xrotation
							End Site
							{
								OFFSET -4.083176 0.000000 0.000000 
							}
						}
					}
				}
			}
		}
	}
	JOINT lThigh
	{
		OFFSET 5.308129 -1.633274 1.361059 
		CHANNELS 3 Xrotation Zrotation Yrotation
		JOINT lShin
		{
			OFFSET -2.041588 -20.007561 0.000000 
			CHANNELS 3 Xrotation Zrotation Yrotation
			JOINT lFoot
			{
				OFFSET 0.000000 -19.190928 -1.224953 
				CHANNELS 3 Xrotation Yrotation Zrotation
				End Site
				{
					OFFSET 0.000000 -2.449906 4.627600 
				}
			}
		}
	}
	JOINT rThigh
	{
		OFFSET -5.308129 -1.633274 1.361059 
		CHANNELS 3 Xrotation Zrotation Yrotation
		JOINT rShin
		{
			OFFSET 2.041588 -20.007561 0.000000 
			CHANNELS 3 Xrotation Zrotation Yrotation
			JOINT rFoot
			{
				OFFSET 0.000000 -19.190928 -1.224953 
				CHANNELS 3 Xrotation Yrotation Zrotation
				End Site
				{
					OFFSET 0.000000 -2.449906 4.627600 
				}
			}
		}
	}
}
MOTION
Frames: 19
Frame Time: 0.016667
-25.495386 53.427544 57.351871 0.335217 2.678241 -13.471716 35.215965 -5.507430 -3.217935 -0.215970 -2.613582 8.541145 -9.684748 -5.249369 0.686725 4.345138 -1.269180 1.347975 -11.875988 5.874225 -1.849657 -37.783283 20.961740 -16.573008 -126.971794 -5.000000 -12.256033 -26.418686 -8.109001 22.300617 -9.924167 11.646701 -1.619606 68.416801 4.095329 -2.393099 99.059944 5.000000 -3.275134 21.008692 -20.809687 25.906031 -22.121025 -1.453002 -10.649804 19.331909 -6.951910 -2.804420 -10.680642 15.180150 -5.479145 41.078941 -8.858495 -25.144190 65.925217 1.397150 3.201711 23.629000 -14.759960 15.093210 
-25.785994 52.543629 60.465435 0.287634 2.727408 -10.460949 35.413410 -3.297111 -4.472285 -0.439288 -2.869673 7.437516 -10.648350 -5.687013 0.862928 3.493180 -1.357236 0.947463 -14.685216 4.986425 -2.044591 -36.095051 16.634050 -14.313401 -123.422447 -5.000000 -8.747113 -26.467587 -9.723983 21.023785 -5.396567 10.082235 -0.744370 66.768784 3.060055 -3.013692 97.823730 5.000000 -2.804090 21.620977 -19.306238 24.885645 -21.997421 -3.211702 -13.495079 24.438103 -7.953283 -4.121336 -12.176788 14.652948 -3.752209 38.608009 -8.624144 -26.336313 71.169128 0.918017 2.979812 23.884989 -14.363436 15.653028 
-25.953033 52.230026 63.333889 0.604263 2.728644 -7.772481 35.705227 -0.847716 -4.362380 -0.268830 -3.360625 6.002819 -12.488108 -7.307703 1.379697 2.215605 -2.285140 -0.215062 -17.367971 3.255612 -1.888358 -36.276333 11.123120 -11.699128 -117.931496 -5.000000 -4.904057 -27.531944 -10.364819 22.029905 -1.302425 8.516710 -0.233520 65.579201 0.977921 -5.081491 97.385979 5.000000 -2.633989 21.742981 -17.433712 23.668295 -21.582832 -4.214572 -13.587484 29.934895 -9.080667 -5.947630 -14.308394 12.704095 -1.352313 33.279881 -8.906995 -25.490906 77.045692 0.663728 3.652478 24.851526 -12.955992 15.620231 
-26.120062 51.916477 66.202324 0.910131 2.723634 -5.083510 36.018185 1.580616 -4.235282 -0.101335 -3.841998 4.567303 -14.357918 -8.910575 1.948967 0.965236 -3.251053 -1.349918 -20.050543 1.537543 -1.638709 -36.707703 5.612448 -9.108517 -112.778641 -5.000000 -1.929178 -28.616655 -10.973945 23.038336 2.768137 6.917286 0.161043 64.467072 -1.133863 -7.101665 96.948120 5.000000 -2.463892 21.797539 -15.576344 22.462221 -21.147100 -5.202796 -13.712120 35.449596 -9.998457 -7.880513 -16.347446 10.580810 0.959470 27.911856 -9.091707 -24.623911 82.939651 0.330258 4.267617 25.833765 -11.586777 15.512630 
-26.508936 52.076485 68.955254 1.099492 0.571607 -7.217119 36.386074 3.476066 -1.341857 -0.353967 -3.170781 3.743952 -15.000298 -9.484227 2.139575 1.096644 -4.540394 0.949704 -20.171783 0.791416 -1.375762 -40.067814 2.008876 -5.980159 -110.402946 -1.993407 -0.096486 -28.875502 -10.660171 24.075569 2.924309 6.878605 0.172502 65.366844 -4.293654 -10.647286 97.509750 5.000000 -2.985558 22.367975 -14.322457 20.494059 -17.371117 -2.431524 -14.053162 35.463612 -9.999101 -8.423779 -19.952082 11.782011 0.918051 19.707016 -8.348391 -18.305618 86.742477 -0.061624 6.585053 23.376268 -11.806736 13.545382 
-26.897823 52.236526 71.708145 1.373696 -1.580254 -9.359150 36.930996 5.339669 1.560649 -0.611122 -2.518139 2.901983 -15.657570 -10.065882 2.341367 1.172479 -5.830464 3.258135 -20.296541 0.037300 -1.106345 -43.616810 -1.392068 -2.649558 -108.150742 2.396381 1.388833 -29.123070 -10.344900 25.110153 3.080519 6.830181 0.183942 66.472855 -7.384295 -14.263407 98.104271 5.000000 -3.565730 22.868250 -13.060534 18.554085 -13.626812 0.343255 -14.204032 35.499313 -9.998681 -8.941736 -23.533155 12.985405 0.938763 11.674726 -6.755906 -12.176351 90.510727 -0.586435 8.911942 20.858507 -11.845928 11.600181 
-27.371353 52.568260 74.506004 1.682055 -3.352445 -11.250403 37.320183 6.578317 3.573464 -0.771989 -1.747793 1.543408 -16.217718 -9.389015 2.243721 0.860868 -6.118775 6.010050 -19.458517 -0.456479 -0.892679 -46.878246 -3.424632 -0.463600 -108.629066 5.000000 2.418953 -29.123066 -10.759247 24.565424 3.071029 6.752028 0.184290 67.021278 -9.900126 -17.316608 99.019417 5.000000 -4.438136 23.190847 -12.679125 17.601435 -8.582050 2.607102 -12.815432 32.881748 -9.991752 -8.017231 -25.107508 12.880786 -0.073665 4.392189 -4.323952 -6.884770 91.398849 -0.781056 10.122520 18.436853 -13.587206 10.286628 
-27.901316 53.014465 77.333855 2.012354 -4.882433 -12.978373 37.545750 7.415636 4.982546 -0.886195 -0.908200 -0.175916 -16.735439 -7.866751 1.925014 0.336511 -5.690639 9.038533 -17.967688 -0.796310 -0.709764 -49.895767 -4.596658 0.917877 -110.888428 5.000000 3.428428 -28.936459 -11.669781 22.965374 2.934558 6.654024 0.171576 67.188072 -12.078118 -20.012974 100.223427 5.000000 -5.608788 23.421318 -12.884977 17.302132 -2.587806 4.326055 -10.331078 28.503891 -9.990818 -6.186542 -25.354059 11.969900 -1.806279 -2.278818 -1.314369 -2.268833 90.398026 -0.644325 10.654772 15.930829 -16.299505 9.388933 
-28.467258 53.468243 80.195503 2.253158 -6.274906 -14.326222 37.754658 8.183120 6.046071 -0.907549 -0.029290 -1.865239 -17.184551 -6.335946 1.597986 -0.108459 -5.374306 11.731893 -16.320925 -1.095380 -0.553843 -52.785744 -5.700061 2.137187 -113.197792 5.000000 4.464466 -28.770515 -12.339450 21.688210 2.778258 6.516939 0.150038 67.533394 -14.274434 -22.933235 101.402344 5.000000 -6.851707 23.518072 -12.926494 16.796812 3.258422 5.716271 -7.898989 24.632105 -8.993636 -4.640747 -25.160122 11.030265 -3.493294 -8.153051 1.914275 1.624117 88.520317 -0.341200 10.720963 13.296926 -18.603737 8.166424 
-29.177126 53.952259 83.192429 1.948488 -7.163138 -14.087376 37.660950 8.786041 5.669964 -0.567065 0.995302 -3.418302 -17.395748 -4.763914 1.217811 -0.288137 -5.537068 13.079209 -14.078202 -1.217128 -0.444870 -55.042091 -6.778458 2.551504 -115.506256 5.000000 5.052277 -28.842649 -12.048215 21.844604 2.573693 6.262570 0.130787 68.319115 -16.574144 -26.725649 101.969810 5.000000 -7.707650 23.051558 -12.367768 15.497363 8.403833 6.617546 -6.242346 22.477673 -8.197624 -3.840760 -23.330053 10.100780 -4.515310 -11.794521 4.188286 4.034336 83.263290 0.499840 8.952991 10.347252 -18.927971 6.545594 
-29.887011 54.436268 86.189377 1.635035 -8.053500 -13.841129 37.547138 9.384411 5.278827 -0.243265 2.027919 -4.962681 -17.611582 -3.191551 0.839289 -0.478535 -5.704184 14.428452 -11.835346 -1.353893 -0.344345 -57.314537 -7.838020 3.018253 -117.825096 5.000000 5.660460 -28.902113 -11.765123 21.990166 2.368531 6.008253 0.101799 69.271034 -18.813463 -30.600758 102.632286 5.000000 -8.654491 22.564884 -11.835831 14.193087 13.586658 7.368552 -4.460871 20.360991 -7.392985 -3.114395 -21.556648 9.201378 -5.486015 -15.357948 6.618969 6.280358 78.007210 1.145182 7.112198 7.425424 -19.235180 4.921173 
-30.566572 54.800537 89.262253 1.126269 -8.013131 -12.438721 37.012249 9.619596 4.014872 -0.117260 2.785430 -6.421000 -17.444532 -1.995521 0.519360 -0.219874 -5.937009 15.259087 -9.738173 -1.390417 -0.276916 -58.719704 -9.036428 3.745265 -118.899826 5.000000 5.883336 -28.932917 -11.994349 21.925417 2.329232 5.490638 0.073612 70.196716 -21.072258 -34.154282 102.808441 5.000000 -9.151019 22.165924 -11.989334 14.152747 17.762213 7.772618 -3.778190 18.364523 -6.864343 -2.636430 -13.463597 7.205359 -6.620543 -17.398678 6.814021 7.180422 70.381851 1.771075 5.902492 6.361632 -18.274694 4.783867 
-31.238544 55.134869 92.354088 0.563859 -7.724969 -10.753371 36.360748 9.759533 2.533957 -0.038774 3.482142 -7.850712 -17.189917 -0.884832 0.222749 0.157206 -6.189302 15.963713 -7.670094 -1.400722 -0.217555 -59.922848 -10.246034 4.552636 -119.660980 5.000000 5.995928 -28.964165 -12.336178 21.817545 2.348798 4.904777 0.052066 71.237907 -23.310741 -37.696320 102.873917 5.000000 -9.533345 21.788586 -12.310592 14.432633 21.659315 8.055511 -3.350683 16.449465 -6.365771 -2.237671 -3.879809 4.932382 -7.326344 -19.095722 6.422412 7.765912 62.152481 2.289684 4.809691 5.857797 -16.954737 5.083007 
-31.882055 55.354591 95.490868 -0.085449 -6.711455 -9.136253 35.501167 9.145363 0.696128 0.018883 4.050526 -9.106624 -16.728661 0.188732 -0.058185 0.505877 -6.410387 16.679354 -5.748521 -1.501112 -0.154459 -60.920849 -11.180839 5.191431 -120.220276 5.000000 5.909511 -28.910200 -12.080244 21.712759 2.485095 4.260588 0.024413 72.166069 -25.327595 -40.691315 102.438385 5.000000 -9.421904 21.625999 -12.708325 14.745971 25.061764 7.703045 -3.333373 15.032680 -5.772432 -1.851638 5.435058 3.633729 -8.352901 -20.071953 5.016384 8.470272 53.259724 2.857224 4.026210 5.915030 -16.373291 5.827950 
-32.482883 55.402435 98.695099 -0.858173 -4.617325 -7.613432 34.427254 7.388273 -1.606184 0.083510 4.443292 -10.087890 -15.951970 1.216933 -0.312476 0.838199 -6.573130 17.383310 -4.022184 -1.750336 -0.092723 -61.584442 -11.686361 5.530868 -120.460876 5.000000 5.524062 -28.730181 -10.931297 21.602222 2.816722 3.519240 -0.003693 72.753609 -27.095930 -42.773617 101.195457 5.000000 -8.533070 21.794142 -13.233130 15.094772 27.609283 6.452636 -3.991718 14.468673 -5.067560 -1.530139 14.588348 3.746031 -10.618070 -20.005541 2.019967 9.309230 43.360737 3.678309 3.666696 6.894281 -16.776167 7.260087 
-33.083698 55.450249 101.899300 -1.568066 -2.495438 -6.129124 33.429962 5.581374 -3.873338 0.131443 4.824871 -11.060442 -15.190657 2.248023 -0.547677 1.165071 -6.733106 18.097050 -2.305204 -1.991983 -0.046390 -62.256287 -12.205761 5.885279 -120.715836 5.000000 5.133493 -28.547247 -9.779215 21.505554 3.158034 2.778036 -0.042063 73.422256 -28.842943 -44.348213 99.905716 5.000000 -7.584603 21.951639 -13.772611 15.445974 30.188110 5.222763 -4.675524 13.900258 -4.325169 -1.260431 23.649958 3.313239 -13.003276 -19.991734 -0.967996 10.133245 33.458073 4.415847 3.231318 7.918925 -17.165094 8.713410 
-33.640499 55.112915 105.099449 -2.398132 -0.428379 -4.472823 32.730793 3.819010 -5.732334 0.245633 4.916603 -11.717191 -14.749121 2.762082 -0.675186 1.660038 -6.717890 18.008684 -0.753768 -2.479258 -0.013825 -63.323307 -11.764811 5.607382 -120.593658 5.000000 4.355843 -28.815554 -8.094813 22.474846 3.723778 1.715451 -0.112050 72.997253 -30.066189 -44.358322 98.390640 5.000000 -6.439725 21.565050 -13.228295 15.335010 31.488214 4.481165 -5.635121 17.414793 -4.133460 -1.436383 21.753723 3.730693 -12.508881 -18.870436 -4.199266 10.781699 24.439089 5.115402 2.562470 8.971813 -17.514877 9.310301 
-34.197289 54.775543 108.299583 -3.159272 1.667854 -2.852627 32.112041 2.027581 -7.585741 0.359157 5.007930 -12.365065 -14.317975 3.288708 -0.784956 2.145186 -6.702638 17.919178 0.798749 -2.957467 -0.007548 -64.382378 -11.330342 5.317676 -120.479553 4.325233 3.588326 -29.030005 -6.397112 23.443621 4.289596 0.662946 -0.201501 72.572189 -31.308987 -44.373352 96.858055 5.000000 -5.274326 21.185503 -12.688567 15.216357 32.809242 3.729633 -6.628288 20.952967 -3.926553 -1.591865 19.796104 4.141231 -11.986233 -17.784933 -7.449577 11.371133 15.413939 5.707734 1.800288 10.038939 -17.830751 9.900146 
-34.772205 54.307499 111.475609 -3.975106 3.221698 -1.398668 31.848373 0.593041 -8.697730 0.339499 5.071316 -12.845698 -13.971421 3.556108 -0.845118 2.572706 -6.892549 17.325752 1.620253 -3.621125 -0.026294 -65.195663 -10.299020 4.546283 -120.135735 2.622767 2.544381 -29.106697 -5.414077 23.924091 5.108541 -0.143963 -0.313306 71.731117 -32.378685 -44.387867 95.202278 5.000000 -3.991171 20.923466 -11.900732 14.410289 33.495090 3.583526 -6.734581 25.828005 -3.770803 -1.913962 17.996193 4.766286 -11.122319 -16.732893 -9.832249 11.212459 9.243674 5.661175 1.164185 12.863806 -17.431608 11.057679 
